{"title":"Teri Aahatein (Ek Main Aur Ekk Tu) - H.264 - 720p [HD] ~~~Abhina","uid":6949376,"size":24164166,"categoryP":"video","categoryS":"music_videos","magnet":"?xt=urn:btih:b74c077d71d23a6c11cae90dc22f07ad7f7a7151&amp;dn=Teri+Aahatein+%28Ek+Main+Aur+Ekk+Tu%29+-+H.264+-+720p+%5BHD%5D+%7E%7E%7EAbhina&amp;tr=udp%3A%2F%2Ftracker.openbittorrent.com%3A80&amp;tr=udp%3A%2F%2Fopen.demonii.com%3A1337&amp;tr=udp%3A%2F%2Ftracker.coppersurfer.tk%3A6969&amp;tr=udp%3A%2F%2Fexodus.desync.com%3A6969","seeders":1,"leechers":0,"uploader":"AbhiHKRG","files":6,"time":1326352785,"description":"COVER ::\n &lt;a href=&quot;\nhttp://i.minus.com/ibdnQ0UeBY48Zj.png&quot; rel=&quot;nofollow&quot; target=&quot;_NEW&quot;&gt;\nhttp://i.minus.com/ibdnQ0UeBY48Zj.png&lt;/a&gt;\n\n\nSCREEN ::\n &lt;a href=&quot;\nhttp://i.minus.com/iEoixcAPeOuN9.png&quot; rel=&quot;nofollow&quot; target=&quot;_NEW&quot;&gt;\nhttp://i.minus.com/iEoixcAPeOuN9.png&lt;/a&gt;\n &lt;a href=&quot;\nhttp://i.minus.com/iF06uh051KzEL.png&quot; rel=&quot;nofollow&quot; target=&quot;_NEW&quot;&gt;\nhttp://i.minus.com/iF06uh051KzEL.png&lt;/a&gt;\n &lt;a href=&quot;\nhttp://i.minus.com/iqsKydbdDUsTc.png&quot; rel=&quot;nofollow&quot; target=&quot;_NEW&quot;&gt;\nhttp://i.minus.com/iqsKydbdDUsTc.png&lt;/a&gt;\n &lt;a href=&quot;\nhttp://i.minus.com/iblmx8HOk15hB3.png&quot; rel=&quot;nofollow&quot; target=&quot;_NEW&quot;&gt;\nhttp://i.minus.com/iblmx8HOk15hB3.png&lt;/a&gt;\n &lt;a href=&quot;\nhttp://i.minus.com/igjCUgqMx7H8W.png&quot; rel=&quot;nofollow&quot; target=&quot;_NEW&quot;&gt;\nhttp://i.minus.com/igjCUgqMx7H8W.png&lt;/a&gt;\n\n\n\nGeneral ::\nFormat                           : AVI\nFormat/Info                      : Audio Video Interleave\nFile size                        : 23.0 MiB\nDuration                         : 1mn 43s\nOverall bit rate                 : 1 872 Kbps\n\n\nVideo Info ::\nID                               : 0\nFormat                           : AVC\nFormat/Info                      : Advanced Video Codec\nFormat profile                   : &lt;a class=&quot;__cf_email__&quot; href=&quot;/cdn-cgi/l/email-protection&quot; data-cfemail=&quot;266e4f414e666a130817&quot;&gt;[email&amp;#160;protected]&lt;/a&gt;&lt;script cf-hash='f9e31' type=&quot;text/javascript&quot;&gt;\n/* &lt;![CDATA[ */!function(){try{var t=&quot;currentScript&quot;in document?document.currentScript:function(){for(var t=document.getElementsByTagName(&quot;script&quot;),e=t.length;e--;)if(t[e].getAttribute(&quot;cf-hash&quot;))return t[e]}();if(t&amp;&amp;t.previousSibling){var e,r,n,i,c=t.previousSibling,a=c.getAttribute(&quot;data-cfemail&quot;);if(a){for(e=&quot;&quot;,r=parseInt(a.substr(0,2),16),n=2;a.length-n;n+=2)i=parseInt(a.substr(n,2),16)^r,e+=String.fromCharCode(i);e=document.createTextNode(e),c.parentNode.replaceChild(e,c)}}}catch(u){}}();/* ]]&gt; */&lt;/script&gt;\nFormat settings, CABAC           : Yes\nFormat settings, ReFrames        : 2 frames\nCodec ID                         : H264\nDuration                         : 10s 0ms\nBit rate                         : 1 540 Kbps\nWidth                            : 1 280 pixels\nHeight                           : 544 pixels\nDisplay aspect ratio             : 2.35:1\nFrame rate                       : 30.000 fps\nColor space                      : YUV\nChroma subsampling               : 4:2:0\nBit depth                        : 8 bits\nScan type                        : Progressive\nBits/(Pixel*Frame)               : 0.074\nStream size                      : 19.0 MiB (82%)\n\n\nAudio Info ::\nID                               : 1\nFormat                           : MPEG Audio\nFormat version                   : Version 1\nFormat profile                   : Layer 3\nCodec ID                         : 55\nCodec ID/Hint                    : MP3\nDuration                         : 1mn 43s\nBit rate mode                    : Constant\nBit rate                         : 320 Kbps\nChannel(s)                       : 2 channels\nSampling rate                    : 44.1 KHz\nCompression mode                 : Lossy\nStream size                      : 3.94 MiB (17%)","torrent":{"xt":"urn:btih:b74c077d71d23a6c11cae90dc22f07ad7f7a7151","amp;dn":"Teri+Aahatein+%28Ek+Main+Aur+Ekk+Tu%29+-+H.264+-+720p+%5BHD%5D+%7E%7E%7EAbhina","amp;tr":["udp%3A%2F%2Ftracker.openbittorrent.com%3A80","udp%3A%2F%2Fopen.demonii.com%3A1337","udp%3A%2F%2Ftracker.coppersurfer.tk%3A6969","udp%3A%2F%2Fexodus.desync.com%3A6969"],"infoHash":"b74c077d71d23a6c11cae90dc22f07ad7f7a7151","infoHashBuffer":{"type":"Buffer","data":[183,76,7,125,113,210,58,108,17,202,233,13,194,47,7,173,127,122,113,81]},"announce":[],"urlList":[]}}